<?xml version="1.0" encoding="UTF-8" standalone="no"?>
<!-- Created with Inkscape (http://www.inkscape.org/) -->

<svg
   width="900"
   height="375"
   viewBox="0 0 238.125 99.21875"
   version="1.1"
   id="svg1"
   sodipodi:docname="tf2weaponcreator.svg"
   inkscape:version="1.4 (86a8ad7, 2024-10-11)"
   xmlns:inkscape="http://www.inkscape.org/namespaces/inkscape"
   xmlns:sodipodi="http://sodipodi.sourceforge.net/DTD/sodipodi-0.dtd"
   xmlns:xlink="http://www.w3.org/1999/xlink"
   xmlns="http://www.w3.org/2000/svg"
   xmlns:svg="http://www.w3.org/2000/svg"
   xmlns:rdf="http://www.w3.org/1999/02/22-rdf-syntax-ns#"
   xmlns:cc="http://creativecommons.org/ns#"
   xmlns:dc="http://purl.org/dc/elements/1.1/">
  <defs
     id="defs1">
    <rect
       x="28.284271"
       y="36.799726"
       width="815.39513"
       height="233.73691"
       id="rect47" />
    <rect
       x="313.55135"
       y="104.78857"
       width="193.14117"
       height="120.00011"
       id="rect46" />
    <inkscape:path-effect
       effect="fillet_chamfer"
       id="path-effect13"
       is_visible="true"
       lpeversion="1"
       nodesatellites_param="F,0,0,1,0,2.5132189,0,1 @ F,0,0,1,0,2.5132189,0,1 @ F,0,0,1,0,2.5132189,0,1 @ F,0,0,1,0,2.5132189,0,1"
       radius="0"
       unit="px"
       method="auto"
       mode="F"
       chamfer_steps="1"
       flexible="false"
       use_knot_distance="true"
       apply_no_radius="true"
       apply_with_radius="true"
       only_selected="false"
       hide_knots="false" />
    <inkscape:path-effect
       effect="fillet_chamfer"
       id="path-effect12"
       is_visible="true"
       lpeversion="1"
       nodesatellites_param="F,0,0,1,0,0,0,1 @ F,0,0,1,0,0,0,1 @ F,0,0,1,0,0,0,1 @ F,0,0,1,0,0,0,1"
       radius="0"
       unit="px"
       method="auto"
       mode="F"
       chamfer_steps="1"
       flexible="false"
       use_knot_distance="true"
       apply_no_radius="true"
       apply_with_radius="true"
       only_selected="false"
       hide_knots="false" />
    <inkscape:path-effect
       effect="fillet_chamfer"
       id="path-effect11"
       is_visible="true"
       lpeversion="1"
       nodesatellites_param="F,0,0,1,0,0,0,1 @ F,0,0,1,0,0,0,1 @ F,0,0,1,0,0,0,1 @ F,0,0,1,0,0,0,1"
       radius="0"
       unit="px"
       method="auto"
       mode="F"
       chamfer_steps="1"
       flexible="false"
       use_knot_distance="true"
       apply_no_radius="true"
       apply_with_radius="true"
       only_selected="false"
       hide_knots="false" />
    <inkscape:path-effect
       effect="fillet_chamfer"
       id="path-effect10"
       is_visible="true"
       lpeversion="1"
       nodesatellites_param="F,0,0,1,0,0,0,1 @ F,0,0,1,0,0,0,1 @ F,0,0,1,0,0,0,1 @ F,0,0,1,0,0,0,1"
       radius="0"
       unit="px"
       method="auto"
       mode="F"
       chamfer_steps="1"
       flexible="false"
       use_knot_distance="true"
       apply_no_radius="true"
       apply_with_radius="true"
       only_selected="false"
       hide_knots="false" />
    <inkscape:path-effect
       effect="fillet_chamfer"
       id="path-effect9"
       is_visible="true"
       lpeversion="1"
       nodesatellites_param="F,0,0,1,0,1.1813233,0,1 @ F,0,0,1,0,1.1813233,0,1 @ F,0,0,1,0,1.1813233,0,1 @ F,0,0,1,0,1.1813233,0,1"
       radius="4.4648438"
       unit="px"
       method="auto"
       mode="F"
       chamfer_steps="1"
       flexible="false"
       use_knot_distance="true"
       apply_no_radius="true"
       apply_with_radius="true"
       only_selected="false"
       hide_knots="false" />
    <inkscape:path-effect
       effect="fillet_chamfer"
       id="path-effect8"
       is_visible="true"
       lpeversion="1"
       nodesatellites_param="F,0,0,1,0,1.6119933,0,1 @ F,0,0,1,0,0,0,1 @ F,0,0,1,0,1.6119933,0,1 @ F,0,0,1,0,1.6119933,0,1"
       radius="7.8666296"
       unit="px"
       method="auto"
       mode="F"
       chamfer_steps="1"
       flexible="false"
       use_knot_distance="true"
       apply_no_radius="true"
       apply_with_radius="true"
       only_selected="false"
       hide_knots="false" />
    <inkscape:path-effect
       effect="fillet_chamfer"
       id="path-effect7"
       is_visible="true"
       lpeversion="1"
       nodesatellites_param="F,0,0,1,0,0,0,1 @ F,0,0,1,0,0,0,1 @ F,0,0,1,0,0,0,1 @ F,0,0,1,0,0,0,1 @ F,0,0,1,0,0,0,1 @ F,0,0,1,0,0,0,1 @ F,0,0,1,0,0,0,1 @ F,0,0,1,0,0,0,1"
       radius="0"
       unit="px"
       method="auto"
       mode="F"
       chamfer_steps="1"
       flexible="false"
       use_knot_distance="true"
       apply_no_radius="true"
       apply_with_radius="true"
       only_selected="false"
       hide_knots="false" />
    <inkscape:path-effect
       effect="fillet_chamfer"
       id="path-effect6"
       is_visible="true"
       lpeversion="1"
       nodesatellites_param="F,0,0,1,0,0,0,1 @ F,0,0,1,0,0,0,1 @ F,0,0,1,0,0,0,1 @ F,0,0,1,0,0,0,1 @ F,0,0,1,0,0,0,1 @ F,0,0,1,0,0,0,1 @ F,0,0,1,0,0,0,1 @ F,0,0,1,0,0,0,1"
       radius="0"
       unit="px"
       method="auto"
       mode="F"
       chamfer_steps="1"
       flexible="false"
       use_knot_distance="true"
       apply_no_radius="true"
       apply_with_radius="true"
       only_selected="false"
       hide_knots="false" />
    <inkscape:path-effect
       effect="fillet_chamfer"
       id="path-effect5"
       is_visible="true"
       lpeversion="1"
       nodesatellites_param="F,0,0,1,0,1.800526,0,1 @ F,0,0,1,0,0,0,1 @ F,0,0,1,0,0,0,1 @ F,0,0,1,0,0,0,1"
       radius="0"
       unit="px"
       method="auto"
       mode="F"
       chamfer_steps="1"
       flexible="false"
       use_knot_distance="true"
       apply_no_radius="true"
       apply_with_radius="true"
       only_selected="false"
       hide_knots="false" />
    <inkscape:path-effect
       effect="fillet_chamfer"
       id="path-effect4"
       is_visible="true"
       lpeversion="1"
       nodesatellites_param="F,0,0,1,0,0,0,1 @ F,0,0,1,0,0,0,1 @ F,0,0,1,0,0,0,1 @ F,0,0,1,0,0,0,1"
       radius="0"
       unit="px"
       method="auto"
       mode="F"
       chamfer_steps="1"
       flexible="false"
       use_knot_distance="true"
       apply_no_radius="true"
       apply_with_radius="true"
       only_selected="false"
       hide_knots="false" />
    <linearGradient
       id="linearGradient3"
       inkscape:collect="always">
      <stop
         style="stop-color:#49423a;stop-opacity:1;"
         offset="0"
         id="stop3" />
      <stop
         style="stop-color:#221e1a;stop-opacity:1;"
         offset="1"
         id="stop4" />
    </linearGradient>
    <linearGradient
       inkscape:collect="always"
       xlink:href="#linearGradient3"
       id="linearGradient4"
       x1="187.35593"
       y1="-20.979305"
       x2="187.35593"
       y2="352.92807"
       gradientUnits="userSpaceOnUse"
       gradientTransform="matrix(0.21225696,0,0,0.26767967,5.2110014,5.1806393)" />
    <inkscape:path-effect
       effect="fillet_chamfer"
       id="path-effect6-2"
       is_visible="true"
       lpeversion="1"
       nodesatellites_param="F,0,0,1,0,0,0,1 @ F,0,0,1,0,1.2685592,0,1 @ F,0,0,1,0,0,0,1 @ F,0,0,1,0,0,0,1 @ F,0,0,1,0,1.0021473,0,1 @ F,0,0,1,0,0,0,1 @ F,0,0,1,0,0,0,1 @ F,0,0,1,0,0,0,1"
       radius="0"
       unit="px"
       method="auto"
       mode="F"
       chamfer_steps="1"
       flexible="false"
       use_knot_distance="true"
       apply_no_radius="true"
       apply_with_radius="true"
       only_selected="false"
       hide_knots="false" />
    <inkscape:path-effect
       effect="fillet_chamfer"
       id="path-effect6-0"
       is_visible="true"
       lpeversion="1"
       nodesatellites_param="F,0,0,1,0,0,0,1 @ F,0,0,1,0,0,0,1 @ F,0,0,1,0,0,0,1 @ F,0,0,1,0,0,0,1 @ F,0,0,1,0,0,0,1 @ F,0,0,1,0,0,0,1 @ F,0,0,1,0,0,0,1 @ F,0,0,1,0,0,0,1"
       radius="0"
       unit="px"
       method="auto"
       mode="F"
       chamfer_steps="1"
       flexible="false"
       use_knot_distance="true"
       apply_no_radius="true"
       apply_with_radius="true"
       only_selected="false"
       hide_knots="false" />
    <rect
       x="28.284271"
       y="36.799725"
       width="815.39514"
       height="233.73691"
       id="rect47-9" />
  </defs>
  <sodipodi:namedview
     id="base"
     pagecolor="#ffffff"
     bordercolor="#000000"
     borderopacity="0.3"
     inkscape:pageopacity="0.0"
     inkscape:pageshadow="2"
     inkscape:zoom="4.9497476"
     inkscape:cx="904.38955"
     inkscape:cy="32.021835"
     inkscape:document-units="mm"
     inkscape:showpageshadow="2"
     inkscape:pagecheckerboard="0"
     inkscape:deskcolor="#d1d1d1"
     inkscape:window-width="2560"
     inkscape:window-height="1377"
     inkscape:window-x="-8"
     inkscape:window-y="-8"
     inkscape:window-maximized="1"
     inkscape:current-layer="svg1" />
  <metadata
     id="metadata1">
    <rdf:RDF>
      <cc:Work
         rdf:about="">
        <dc:format>image/svg+xml</dc:format>
        <dc:type
           rdf:resource="http://purl.org/dc/dcmitype/StillImage" />
      </cc:Work>
    </rdf:RDF>
  </metadata>
  <rect
     style="font-variation-settings:normal;opacity:1;fill:#777777;fill-opacity:1;fill-rule:nonzero;stroke:#000000;stroke-width:1.3351;stroke-linecap:butt;stroke-linejoin:miter;stroke-miterlimit:4;stroke-dasharray:none;stroke-dashoffset:0;stroke-opacity:1;stop-color:#000000;stop-opacity:1"
     id="rect1"
     width="236.7899"
     height="97.883652"
     x="0.66754949"
     y="0.66754937" />
  <rect
     style="font-variation-settings:normal;vector-effect:none;fill:#292526;fill-opacity:0;stroke:none;stroke-width:0.064116;stroke-linecap:butt;stroke-linejoin:miter;stroke-miterlimit:4;stroke-dasharray:none;stroke-dashoffset:0;stroke-opacity:1;-inkscape-stroke:none;stop-color:#000000"
     id="rect1-5"
     width="227.47682"
     height="88.570572"
     x="5.324461"
     y="5.3237247" />
  <path
     style="fill:url(#linearGradient4);stroke:none;stroke-width:0.0630672"
     id="rect2"
     width="79.308273"
     height="88.570572"
     x="5.324461"
     y="5.3237247"
     sodipodi:type="rect"
     inkscape:path-effect="#path-effect6"
     d="M 6.9614868,5.3237247 H 82.995708 c 0.906913,0 1.637026,0.7301136 1.637026,1.6370259 V 92.257271 c 0,0.906912 -0.730113,1.637026 -1.637026,1.637026 H 6.9614868 c -0.9069123,0 -1.6370258,-0.730114 -1.6370258,-1.637026 V 6.9607506 c 0,-0.9069123 0.7301135,-1.6370259 1.6370258,-1.6370259 z"
     ry="1.6370258"
     transform="translate(-0.06681738)" />
  <path
     style="font-variation-settings:normal;vector-effect:none;fill:#27231e;fill-opacity:1;stroke:none;stroke-width:0.0693138;stroke-linecap:butt;stroke-linejoin:miter;stroke-miterlimit:4;stroke-dasharray:none;stroke-dashoffset:0;stroke-opacity:1;-inkscape-stroke:none;stop-color:#000000"
     id="rect1-5-1"
     width="32.436638"
     height="19.963423"
     x="28.760281"
     y="11.673722"
     inkscape:path-effect="#path-effect7"
     sodipodi:type="rect"
     d="m 30.933644,11.673722 h 28.089911 c 1.204043,0 2.173363,0.96932 2.173363,2.173363 v 15.616697 c 0,1.204043 -0.96932,2.173363 -2.173363,2.173363 H 30.933644 c -1.204043,0 -2.173363,-0.96932 -2.173363,-2.173363 V 13.847085 c 0,-1.204043 0.96932,-2.173363 2.173363,-2.173363 z"
     ry="2.1733632"
     transform="translate(-0.18899,-1.937128)" />
  <rect
     style="fill:#ffd700;fill-opacity:1;fill-rule:nonzero;stroke-width:0.0694015;-inkscape-stroke:none"
     id="rect3"
     width="37.628597"
     height="3.0416114"
     x="25.829819"
     y="32.40242"
     ry="1.5208057" />
  <rect
     style="fill:#72675a;fill-opacity:1;fill-rule:nonzero;stroke-width:0.0607689;-inkscape-stroke:none"
     id="rect3-4"
     width="28.849842"
     height="3.0416114"
     x="30.219196"
     y="38.146435"
     ry="1.5208057" />
  <rect
     style="fill:#89adcf;fill-opacity:1;fill-rule:nonzero;stroke-width:0.06878;-inkscape-stroke:none"
     id="rect3-4-2"
     width="36.957664"
     height="3.0416114"
     x="25.969423"
     y="45.346512"
     ry="1.5208057" />
  <rect
     style="fill:#89adcf;fill-opacity:1;fill-rule:nonzero;stroke-width:0.06878;-inkscape-stroke:none"
     id="rect3-4-2-4"
     width="36.957664"
     height="3.0416114"
     x="25.969423"
     y="50.743305"
     ry="1.5208057" />
  <rect
     style="fill:#ff3e3e;fill-opacity:1;fill-rule:nonzero;stroke-width:0.06878;-inkscape-stroke:none"
     id="rect3-4-2-4-3"
     width="36.957664"
     height="3.0416114"
     x="25.969423"
     y="56.140099"
     ry="1.5208057" />
  <rect
     style="fill:#e3dac3;fill-opacity:1;fill-rule:nonzero;stroke-width:0.06878;-inkscape-stroke:none"
     id="rect3-4-2-4-3-4"
     width="36.957664"
     height="3.0416114"
     x="25.969423"
     y="61.536892"
     ry="1.5208057" />
  <rect
     style="fill:#e3dac3;fill-opacity:1;fill-rule:nonzero;stroke-width:0.06878;-inkscape-stroke:none"
     id="rect3-4-2-4-3-4-7"
     width="36.957664"
     height="3.0416114"
     x="25.969423"
     y="66.933685"
     ry="1.5208057" />
  <path
     style="opacity:1;fill:#292526;fill-opacity:1;fill-rule:nonzero;stroke-width:0.176583;stroke-dasharray:none"
     id="rect12"
     width="144.50037"
     height="88.602631"
     x="88.33297"
     y="5.2916665"
     ry="0"
     inkscape:path-effect="#path-effect13"
     sodipodi:type="rect"
     rx="0"
     d="M 90.846189,5.2916665 H 230.32012 a 2.5132189,2.5132189 45 0 1 2.51322,2.5132189 l 0,83.5761926 a 2.5132189,2.5132189 135 0 1 -2.51322,2.513219 H 90.846189 A 2.5132189,2.5132189 45 0 1 88.33297,91.381078 V 7.8048854 a 2.5132189,2.5132189 135 0 1 2.513219,-2.5132189 z" />
  <rect
     style="display:inline;fill:#ff3e3e;fill-opacity:1;fill-rule:nonzero;stroke-width:0.0803189;-inkscape-stroke:none"
     id="rect13"
     width="26.823111"
     height="5.7148552"
     x="89.870415"
     y="6.8791666"
     ry="2.8574276" />
  <rect
     style="display:inline;fill:#ff3e3e;fill-opacity:1;fill-rule:nonzero;stroke-width:0.115899;-inkscape-stroke:none"
     id="rect14"
     width="55.851681"
     height="5.7148552"
     x="175.44423"
     y="6.8791666"
     ry="2.8574276" />
  <rect
     style="display:inline;fill:#ff3e3e;fill-opacity:1;fill-rule:nonzero;stroke-width:0.115455;-inkscape-stroke:none"
     id="rect15"
     width="55.424511"
     height="5.7148552"
     x="118.35662"
     y="6.8791666"
     ry="2.8574276" />
  <rect
     style="display:inline;fill:#72675a;fill-opacity:1;fill-rule:nonzero;stroke-width:0.0490687;-inkscape-stroke:none"
     id="rect3-4-8"
     width="18.809999"
     height="3.0416114"
     x="89.870415"
     y="15.621161"
     ry="1.5208057" />
  <rect
     style="display:inline;fill:#0f0d0c;fill-opacity:1;fill-rule:nonzero;stroke-width:0.116051;-inkscape-stroke:none"
     id="rect3-4-8-0"
     width="105.21336"
     height="3.0416114"
     x="125.98644"
     y="15.621161"
     ry="1.5208057" />
  <rect
     style="display:inline;fill:#72675a;fill-opacity:1;fill-rule:nonzero;stroke-width:0.0793578;-inkscape-stroke:none"
     id="rect16"
     width="49.199284"
     height="3.0416114"
     x="89.870415"
     y="20.912832"
     ry="1.5208057" />
  <rect
     style="display:inline;fill:#0f0d0c;fill-opacity:1;fill-rule:nonzero;stroke-width:0.0201113;-inkscape-stroke:none"
     id="rect19"
     width="3.1597807"
     height="3.0416114"
     x="228.04002"
     y="20.912832"
     ry="1.5208057" />
  <rect
     style="display:inline;fill:#72675a;fill-opacity:1;fill-rule:nonzero;stroke-width:0.0431956;-inkscape-stroke:none"
     id="rect23"
     width="14.576666"
     height="3.0416114"
     x="89.870415"
     y="26.204504"
     ry="1.5208057" />
  <rect
     style="display:inline;fill:#0f0d0c;fill-opacity:1;fill-rule:nonzero;stroke-width:0.116051;-inkscape-stroke:none"
     id="rect24"
     width="105.21336"
     height="3.0416114"
     x="125.98644"
     y="26.204504"
     ry="1.5208057" />
  <rect
     style="display:inline;fill:#72675a;fill-opacity:1;fill-rule:nonzero;stroke-width:0.0517559;-inkscape-stroke:none"
     id="rect25"
     width="20.926666"
     height="3.0416114"
     x="89.870415"
     y="31.496176"
     ry="1.5208057" />
  <rect
     style="display:inline;fill:#201e1e;fill-opacity:1;fill-rule:nonzero;stroke-width:0.116051;-inkscape-stroke:none"
     id="rect26"
     width="105.21336"
     height="3.0416114"
     x="125.98644"
     y="31.496176"
     ry="1.5208057" />
  <rect
     style="display:inline;fill:#72675a;fill-opacity:1;fill-rule:nonzero;stroke-width:0.0431956;-inkscape-stroke:none"
     id="rect27"
     width="14.576666"
     height="3.0416114"
     x="89.870415"
     y="36.787846"
     ry="1.5208057" />
  <rect
     style="display:inline;fill:#201e1e;fill-opacity:1;fill-rule:nonzero;stroke-width:0.116051;-inkscape-stroke:none"
     id="rect28"
     width="105.21336"
     height="3.0416114"
     x="125.98644"
     y="36.787846"
     ry="1.5208057" />
  <rect
     style="display:inline;fill:#72675a;fill-opacity:1;fill-rule:nonzero;stroke-width:0.0490687;-inkscape-stroke:none"
     id="rect29"
     width="18.809999"
     height="3.0416114"
     x="89.870415"
     y="42.079517"
     ry="1.5208057" />
  <rect
     style="display:inline;fill:#0f0d0c;fill-opacity:1;fill-rule:nonzero;stroke-width:0.116051;-inkscape-stroke:none"
     id="rect30"
     width="105.21336"
     height="3.0416114"
     x="125.98644"
     y="42.079517"
     ry="1.5208057" />
  <rect
     style="display:inline;fill:#72675a;fill-opacity:1;fill-rule:nonzero;stroke-width:0.0585956;-inkscape-stroke:none"
     id="rect31"
     width="26.823111"
     height="3.0416114"
     x="89.870415"
     y="47.371189"
     ry="1.5208057" />
  <rect
     style="display:inline;fill:#0f0d0c;fill-opacity:1;fill-rule:nonzero;stroke-width:0.116051;-inkscape-stroke:none"
     id="rect32"
     width="105.21336"
     height="3.0416114"
     x="125.98644"
     y="47.371189"
     ry="1.5208057" />
  <rect
     style="display:inline;fill:#72675a;fill-opacity:1;fill-rule:nonzero;stroke-width:0.0517559;-inkscape-stroke:none"
     id="rect33"
     width="20.926666"
     height="3.0416114"
     x="89.870415"
     y="52.662861"
     ry="1.5208057" />
  <rect
     style="display:inline;fill:#0f0d0c;fill-opacity:1;fill-rule:nonzero;stroke-width:0.116051;-inkscape-stroke:none"
     id="rect34"
     width="105.21336"
     height="3.0416114"
     x="125.98644"
     y="52.662861"
     ry="1.5208057" />
  <rect
     style="display:inline;fill:#72675a;fill-opacity:1;fill-rule:nonzero;stroke-width:0.0517559;-inkscape-stroke:none"
     id="rect35"
     width="20.926666"
     height="3.0416114"
     x="89.870415"
     y="57.954533"
     ry="1.5208057" />
  <rect
     style="display:inline;fill:#0f0d0c;fill-opacity:1;fill-rule:nonzero;stroke-width:0.0201114;-inkscape-stroke:none"
     id="rect36"
     width="3.1597824"
     height="3.0416114"
     x="228.04002"
     y="57.954533"
     ry="1.5208057" />
  <rect
     style="display:inline;fill:#72675a;fill-opacity:1;fill-rule:nonzero;stroke-width:0.0585955;-inkscape-stroke:none"
     id="rect37"
     width="26.823111"
     height="3.0416114"
     x="89.870415"
     y="63.246204"
     ry="1.5208057" />
  <rect
     style="display:inline;fill:#0f0d0c;fill-opacity:1;fill-rule:nonzero;stroke-width:0.0201114;-inkscape-stroke:none"
     id="rect38"
     width="3.1597824"
     height="3.0416114"
     x="228.04002"
     y="63.246204"
     ry="1.5208057" />
  <rect
     style="display:inline;fill:#72675a;fill-opacity:1;fill-rule:nonzero;stroke-width:0.0490687;-inkscape-stroke:none"
     id="rect39"
     width="18.809999"
     height="3.0416114"
     x="89.870415"
     y="68.537872"
     ry="1.5208057" />
  <rect
     style="display:inline;fill:#0f0d0c;fill-opacity:1;fill-rule:nonzero;stroke-width:0.116051;-inkscape-stroke:none"
     id="rect40"
     width="105.21336"
     height="3.0416114"
     x="125.98644"
     y="68.537872"
     ry="1.5208057" />
  <rect
     style="display:inline;fill:#72675a;fill-opacity:1;fill-rule:nonzero;stroke-width:0.0585955;-inkscape-stroke:none"
     id="rect42"
     width="26.823111"
     height="3.0416114"
     x="89.870415"
     y="73.829544"
     ry="1.5208057" />
  <rect
     style="display:inline;fill:#0f0d0c;fill-opacity:1;fill-rule:nonzero;stroke-width:0.116051;-inkscape-stroke:none"
     id="rect43"
     width="105.21336"
     height="3.0416114"
     x="125.98644"
     y="73.829544"
     ry="1.5208057" />
  <rect
     style="display:inline;fill:#72675a;fill-opacity:1;fill-rule:nonzero;stroke-width:0.0431955;-inkscape-stroke:none"
     id="rect44"
     width="14.576666"
     height="3.0416114"
     x="89.870415"
     y="79.121216"
     ry="1.5208057" />
  <rect
     style="display:inline;fill:#72675a;fill-opacity:1;fill-rule:nonzero;stroke-width:0.106748;-inkscape-stroke:none"
     id="rect44-6"
     width="34.6581"
     height="7.8126307"
     x="89.870399"
     y="84.412888"
     ry="3.9063153" />
  <rect
     style="display:inline;fill:#0f0d0c;fill-opacity:1;fill-rule:nonzero;stroke-width:0.116051;-inkscape-stroke:none"
     id="rect45"
     width="105.21336"
     height="3.0416114"
     x="125.98644"
     y="79.121216"
     ry="1.5208057" />
  <g
     id="g47"
     transform="matrix(1.1981339,0,0,1.1981339,-23.523901,-7.7555607)">
    <g
       id="text46-3"
       style="font-size:85.3333px;line-height:75px;font-family:'TF2 Build';-inkscape-font-specification:'TF2 Build, Normal';text-align:center;white-space:pre;stroke-width:0.321"
       transform="matrix(0.26458333,0,0,0.26458333,4.767151,21.175805)"
       aria-label="TF2 WEAPON CREATOR">
      <path
         d="m 188.04503,48.715505 0.75,46.333314 -15.375,0.583333 -0.83333,-46.416647 -17.33333,0.833333 -0.41666,-12.624995 52.49997,-1.624999 0.41667,12.124995 z m 40.29165,46.916647 -16.125,-0.333333 0.83334,-59.833308 47.54164,1.374999 -0.33333,14.249994 -31.83332,-0.875 v 20.249992 h 18.70833 l -0.0833,7.999997 -18.62499,-0.166667 z m 77.8333,-1.791666 h -34.20832 v -9.458329 q 1.79167,-0.166667 4.04166,-1.041666 2.29167,-0.916667 4.70834,-2.333333 2.41666,-1.416666 4.79166,-3.291665 2.41667,-1.874999 4.41667,-3.999998 2.04166,-2.166666 3.49999,-4.499998 1.45834,-2.333333 2,-4.666665 0.54167,-2.333333 0,-4.583332 -0.54166,-2.249999 -2.54166,-4.249998 -1.625,-1.666666 -4,-1.916666 -2.33333,-0.25 -4.91667,0.5 -2.54166,0.75 -5.04166,2.291666 -2.5,1.541666 -4.5,3.458332 L 264.795,46.298839 q 0.41666,-0.583333 1.45833,-1.499999 1.04166,-0.958333 2.625,-1.999999 1.58333,-1.083333 3.66666,-2.166666 2.08334,-1.083333 4.54167,-1.916666 2.45833,-0.874999 5.25,-1.416666 2.79166,-0.541666 5.83333,-0.541666 2,0 4.24999,0.208333 2.25,0.208333 4.5,0.875 2.25,0.624999 4.375,1.833332 2.125,1.208333 3.875,3.166666 1.75,1.958332 3.04166,4.791664 1.29167,2.833332 1.875,6.791664 0.375,2.583332 -0.16666,5.249998 -0.5,2.624999 -1.66667,5.166664 -1.125,2.541666 -2.75,4.916665 -1.58333,2.374999 -3.29166,4.458331 -4.04167,4.916665 -9.41667,9.374997 h 13.20833 z m 96.62497,-18.249992 9.87499,-39.249984 14.08333,2.541666 -15.08333,56.166643 -13.24999,-1.458333 -8.70833,-33.208319 -12.45833,35.333318 h -14.66666 l -14.08333,-57.958309 16.54166,-1.958332 8.04166,35.958318 11.08333,-35.958318 8.79167,0.708333 z m 42.99997,-25.37499 0.25,19.666659 h 18.24999 v 7.999997 h -17.91666 l 0.16667,6.499997 27.04166,-0.875 0.33333,11.374995 -42.74998,0.75 -0.75,-59.666642 h 48.37498 v 14.249994 z m 76.3333,28.416655 h -18.54165 l -5.70834,16.999993 -14.49999,-3.999998 21.83332,-55.749977 12.04167,0.791666 22.62499,54.083311 -11.29167,4.124998 z m -3.24999,-7.249997 -7.25,-16.958326 -5.625,16.958326 z m 71.5833,-18.999992 q 0,1.833333 -0.0833,3.541665 -0.0417,1.708333 -0.41667,3.291666 -0.375,1.583332 -1.20833,3.124998 -0.83333,1.541666 -2.375,3.083332 -1.41666,1.666666 -3.45833,2.791666 -2.04167,1.124999 -4.375,1.874999 -2.29166,0.708333 -4.79166,1.125 -2.5,0.375 -4.83333,0.583333 -2.29167,0.166666 -4.33334,0.208333 -2.04166,0 -3.45833,0 v 22.791657 l -15.54166,0.833333 -1.625,-59.583308 16.29166,-0.833333 q 1.54167,0 3.375,0.04167 1.83333,0 3.95833,0.166667 2.16667,0.166667 4.625,0.541666 2.45833,0.333334 5.20833,0.958333 2.75,0.625 5.125,2.083333 2.375,1.458333 4.125,3.541665 1.79166,2.041666 2.79166,4.583331 1,2.499999 1,5.249998 z m -29.87498,11.166662 q 0.5,0 1.91666,0.08333 1.45833,0.08333 3.29167,0.04167 1.83333,-0.04167 3.83333,-0.375 2,-0.333333 3.58333,-1.208333 1.625,-0.874999 2.58333,-2.416665 0.95834,-1.583333 0.75,-4.083332 -0.20833,-2.416665 -1.41666,-3.958331 -1.16667,-1.583333 -3.25,-2.416666 -2.08333,-0.833333 -5.04167,-1.041666 -2.91666,-0.208334 -6.58333,0.08333 z m 64.95829,-28.749988 q 4.54167,0 8.66667,1.125 4.12499,1.083333 7.62499,3.083332 3.54167,1.999999 6.41667,4.833331 2.875,2.833332 4.87499,6.249998 2.04167,3.416665 3.125,7.374996 1.125,3.958332 1.125,8.20833 0,4.208332 -1.125,8.124997 -1.08333,3.874998 -3.125,7.249997 -1.99999,3.374999 -4.87499,6.166664 -2.875,2.749999 -6.41667,4.708331 -3.5,1.958333 -7.62499,3.041666 -4.125,1.083333 -8.66667,1.083333 -4.29166,0 -8.29166,-1.083333 -3.95833,-1.083333 -7.41666,-3.041666 -3.41667,-1.958332 -6.25,-4.708331 -2.79167,-2.791665 -4.79167,-6.166664 -1.99999,-3.374999 -3.12499,-7.249997 -1.08334,-3.874998 -1.08334,-8.124997 0,-4.249998 1.08334,-8.20833 1.125,-3.958331 3.12499,-7.374996 2,-3.416666 4.79167,-6.249998 2.83333,-2.833332 6.25,-4.833331 3.45833,-1.999999 7.41666,-3.083332 4,-1.125 8.29166,-1.125 z m 0,49.333313 q 3.875,0 7.16667,-1.374999 3.29166,-1.375 5.66666,-3.666666 2.41667,-2.333332 3.75,-5.333331 1.375,-3.041665 1.375,-6.374997 0,-3.666665 -1.375,-6.708331 -1.33333,-3.083332 -3.75,-5.249997 -2.375,-2.208333 -5.66666,-3.416666 -3.29167,-1.249999 -7.16667,-1.249999 -3.54166,0 -6.66666,1.249999 -3.08333,1.208333 -5.41667,3.416666 -2.29166,2.166665 -3.62499,5.249997 -1.33334,3.041666 -1.33334,6.708331 0,3.333332 1.33334,6.374997 1.33333,2.999999 3.62499,5.333331 2.33334,2.291666 5.41667,3.666666 3.125,1.374999 6.66666,1.374999 z m 50.74998,-24.666656 0.83333,36.166651 H 661.08649 V 35.882177 h 12.125 l 26.62499,37.999984 -1.79167,-37.374984 13.74999,-0.541667 0.91667,58.041643 -11.24999,0.874999 z"
         id="path47" />
      <path
         d="m 287.04498,167.04882 q -1.5,1.20833 -3.54166,2 -2,0.79167 -4.25,1.25 -2.25,0.41667 -4.58333,0.58333 -2.29167,0.16667 -4.375,0.16667 -4,0 -7.95833,-0.95833 -3.91666,-0.95834 -7.5,-2.75 -3.54166,-1.79167 -6.58333,-4.29167 -3.04166,-2.54166 -5.29166,-5.625 -2.20833,-3.12499 -3.5,-6.74999 -1.25,-3.625 -1.25,-7.625 -0.20833,-4.41666 0.66667,-8.54166 0.875,-4.16667 2.75,-7.79167 1.875,-3.66666 4.70833,-6.66666 2.875,-3.04167 6.66666,-5.20833 3.83333,-2.20833 8.54166,-3.41667 4.70834,-1.20833 10.29167,-1.20833 3.625,0 6.83333,0.54167 3.25,0.5 5.70833,1.20833 2.5,0.66667 4.04166,1.33333 1.54167,0.625 1.83334,0.91667 v 15.20833 q -0.875,-0.58334 -2.625,-1.25 -1.70834,-0.70834 -3.95833,-1.20834 -2.25,-0.54166 -4.91667,-0.75 -2.625,-0.25 -5.29166,0.0417 -1.625,0 -3.79167,0.41667 -2.125,0.41666 -4.375,1.375 -2.25,0.91666 -4.375,2.41666 -2.08333,1.45833 -3.62499,3.625 -1.5,2.125 -2.16667,4.95833 -0.66667,2.83333 -0.0833,6.41667 0.58333,2.99999 2.58333,5.29166 2,2.25 4.79166,3.79167 2.83334,1.54166 6.20834,2.33333 3.37499,0.75 6.70833,0.83333 3.37499,0.0417 6.41666,-0.625 3.08333,-0.66667 5.29166,-2.08333 z m 49.37499,-26.45832 q -1.33334,1.375 -3.08334,2.41666 -1.70833,1 -3.58333,1.75 -1.875,0.70834 -3.83333,1.16667 -1.91667,0.41667 -3.66667,0.625 l 15.79166,15.95833 -8.12499,7.29166 -19.12499,-21.70833 0.45833,21.70833 -15.45833,0.83333 -1.625,-59.29164 16.29166,-0.875 q 3,0 7.25,0.20833 4.29166,0.20834 9.83333,1.41667 2.45833,0.54167 4.75,2 2.29166,1.45833 4.08333,3.54166 1.83333,2.04167 3,4.625 1.16666,2.54167 1.375,5.29167 0.125,1.83333 0.0417,3.45833 -0.0417,1.625 -0.5,3.20833 -0.41666,1.58333 -1.33333,3.16667 -0.91667,1.54166 -2.54166,3.20833 z m -9.75,-9.04166 q -0.29167,-2.41667 -1.5,-3.95834 -1.16667,-1.58333 -3.25,-2.41666 -2.04166,-0.875 -4.91666,-1.04167 -2.875,-0.20833 -6.54167,0.0833 v 15.54167 q 0.58334,0 2.08334,0.12499 1.49999,0.125 3.37499,0.125 1.875,-0.0417 3.875,-0.37499 2,-0.33334 3.58333,-1.25 1.625,-0.91667 2.54167,-2.54167 0.95833,-1.625 0.75,-4.29166 z m 34.12499,-6.33334 0.25,19.66666 h 18.24999 v 8 h -17.91666 l 0.16667,6.5 27.04165,-0.875 0.33334,11.37499 -42.74999,0.75 -0.75,-59.66664 h 48.37498 v 14.24999 z m 76.3333,28.41666 H 418.5866 l -5.70833,16.99999 -14.49999,-4 21.83332,-55.74997 12.04166,0.79166 22.62499,54.08331 -11.29166,4.125 z m -3.25,-7.25 -7.24999,-16.95832 -5.625,16.95832 z m 58.29165,-22.66665 0.75,46.33331 -15.37499,0.58333 -0.83334,-46.41665 -17.33332,0.83334 -0.41667,-12.625 52.49998,-1.625 0.41666,12.125 z m 55.12497,-13.91667 q 4.54166,0 8.66666,1.125 4.125,1.08334 7.625,3.08334 3.54166,1.99999 6.41666,4.83333 2.875,2.83333 4.875,6.24999 2.04167,3.41667 3.125,7.375 1.125,3.95833 1.125,8.20833 0,4.20833 -1.125,8.125 -1.08333,3.875 -3.125,7.24999 -2,3.375 -4.875,6.16667 -2.875,2.75 -6.41666,4.70833 -3.5,1.95833 -7.625,3.04167 -4.125,1.08333 -8.66666,1.08333 -4.29167,0 -8.29166,-1.08333 -3.95834,-1.08334 -7.41667,-3.04167 -3.41666,-1.95833 -6.24999,-4.70833 -2.79167,-2.79167 -4.79167,-6.16667 -2,-3.37499 -3.125,-7.24999 -1.08333,-3.875 -1.08333,-8.125 0,-4.25 1.08333,-8.20833 1.125,-3.95833 3.125,-7.375 2,-3.41666 4.79167,-6.24999 2.83333,-2.83334 6.24999,-4.83333 3.45833,-2 7.41667,-3.08334 3.99999,-1.125 8.29166,-1.125 z m 0,49.33332 q 3.875,0 7.16666,-1.375 3.29167,-1.375 5.66667,-3.66667 2.41666,-2.33333 3.75,-5.33333 1.375,-3.04166 1.375,-6.375 0,-3.66666 -1.375,-6.70833 -1.33334,-3.08333 -3.75,-5.24999 -2.375,-2.20834 -5.66667,-3.41667 -3.29166,-1.25 -7.16666,-1.25 -3.54167,0 -6.66666,1.25 -3.08334,1.20833 -5.41667,3.41667 -2.29166,2.16666 -3.625,5.24999 -1.33333,3.04167 -1.33333,6.70833 0,3.33334 1.33333,6.375 1.33334,3 3.625,5.33333 2.33333,2.29167 5.41667,3.66667 3.12499,1.375 6.66666,1.375 z m 77.79163,-18.54166 q -1.33333,1.375 -3.08333,2.41666 -1.70833,1 -3.58333,1.75 -1.875,0.70834 -3.83333,1.16667 -1.91667,0.41667 -3.66667,0.625 l 15.79166,15.95833 -8.125,7.29166 -19.12499,-21.70833 0.45833,21.70833 -15.45832,0.83333 -1.625,-59.29164 16.29166,-0.875 q 3,0 7.25,0.20833 4.29166,0.20834 9.83332,1.41667 2.45834,0.54167 4.75,2 2.29167,1.45833 4.08333,3.54166 1.83334,2.04167 3,4.625 1.16667,2.54167 1.375,5.29167 0.125,1.83333 0.0417,3.45833 -0.0417,1.625 -0.5,3.20833 -0.41667,1.58333 -1.33333,3.16667 -0.91667,1.54166 -2.54167,3.20833 z m -9.74999,-9.04166 q -0.29167,-2.41667 -1.5,-3.95834 -1.16667,-1.58333 -3.25,-2.41666 -2.04167,-0.875 -4.91667,-1.04167 -2.875,-0.20833 -6.54166,0.0833 v 15.54167 q 0.58333,0 2.08333,0.12499 1.5,0.125 3.375,0.125 1.875,-0.0417 3.875,-0.37499 2,-0.33334 3.58333,-1.25 1.625,-0.91667 2.54167,-2.54167 0.95833,-1.625 0.75,-4.29166 z"
         id="path48" />
    </g>
    <path
       d="m 188.04503,48.715505 0.75,46.333314 -15.375,0.583333 -0.83333,-46.416647 -17.33333,0.833333 -0.41666,-12.624995 52.49997,-1.624999 0.41667,12.124995 z m 40.29165,46.916647 -16.125,-0.333333 0.83334,-59.833308 47.54164,1.374999 -0.33333,14.249994 -31.83332,-0.875 v 20.249992 h 18.70833 l -0.0833,7.999997 -18.62499,-0.166667 z m 77.8333,-1.791666 h -34.20832 v -9.458329 q 1.79167,-0.166667 4.04166,-1.041666 2.29167,-0.916667 4.70834,-2.333333 2.41666,-1.416666 4.79166,-3.291665 2.41667,-1.874999 4.41667,-3.999998 2.04166,-2.166666 3.49999,-4.499998 1.45834,-2.333333 2,-4.666665 0.54167,-2.333333 0,-4.583332 -0.54166,-2.249999 -2.54166,-4.249998 -1.625,-1.666666 -4,-1.916666 -2.33333,-0.25 -4.91667,0.5 -2.54166,0.75 -5.04166,2.291666 -2.5,1.541666 -4.5,3.458332 L 264.795,46.298839 q 0.41666,-0.583333 1.45833,-1.499999 1.04166,-0.958333 2.625,-1.999999 1.58333,-1.083333 3.66666,-2.166666 2.08334,-1.083333 4.54167,-1.916666 2.45833,-0.874999 5.25,-1.416666 2.79166,-0.541666 5.83333,-0.541666 2,0 4.24999,0.208333 2.25,0.208333 4.5,0.875 2.25,0.624999 4.375,1.833332 2.125,1.208333 3.875,3.166666 1.75,1.958332 3.04166,4.791664 1.29167,2.833332 1.875,6.791664 0.375,2.583332 -0.16666,5.249998 -0.5,2.624999 -1.66667,5.166664 -1.125,2.541666 -2.75,4.916665 -1.58333,2.374999 -3.29166,4.458331 -4.04167,4.916665 -9.41667,9.374997 h 13.20833 z m 96.62497,-18.249992 9.87499,-39.249984 14.08333,2.541666 -15.08333,56.166643 -13.24999,-1.458333 -8.70833,-33.208319 -12.45833,35.333318 h -14.66666 l -14.08333,-57.958309 16.54166,-1.958332 8.04166,35.958318 11.08333,-35.958318 8.79167,0.708333 z m 42.99997,-25.37499 0.25,19.666659 h 18.24999 v 7.999997 h -17.91666 l 0.16667,6.499997 27.04166,-0.875 0.33333,11.374995 -42.74998,0.75 -0.75,-59.666642 h 48.37498 v 14.249994 z m 76.3333,28.416655 h -18.54165 l -5.70834,16.999993 -14.49999,-3.999998 21.83332,-55.749977 12.04167,0.791666 22.62499,54.083311 -11.29167,4.124998 z m -3.24999,-7.249997 -7.25,-16.958326 -5.625,16.958326 z m 71.5833,-18.999992 q 0,1.833333 -0.0833,3.541665 -0.0417,1.708333 -0.41667,3.291666 -0.375,1.583332 -1.20833,3.124998 -0.83333,1.541666 -2.375,3.083332 -1.41666,1.666666 -3.45833,2.791666 -2.04167,1.124999 -4.375,1.874999 -2.29166,0.708333 -4.79166,1.125 -2.5,0.375 -4.83333,0.583333 -2.29167,0.166666 -4.33334,0.208333 -2.04166,0 -3.45833,0 v 22.791657 l -15.54166,0.833333 -1.625,-59.583308 16.29166,-0.833333 q 1.54167,0 3.375,0.04167 1.83333,0 3.95833,0.166667 2.16667,0.166667 4.625,0.541666 2.45833,0.333334 5.20833,0.958333 2.75,0.625 5.125,2.083333 2.375,1.458333 4.125,3.541665 1.79166,2.041666 2.79166,4.583331 1,2.499999 1,5.249998 z m -29.87498,11.166662 q 0.5,0 1.91666,0.08333 1.45833,0.08333 3.29167,0.04167 1.83333,-0.04167 3.83333,-0.375 2,-0.333333 3.58333,-1.208333 1.625,-0.874999 2.58333,-2.416665 0.95834,-1.583333 0.75,-4.083332 -0.20833,-2.416665 -1.41666,-3.958331 -1.16667,-1.583333 -3.25,-2.416666 -2.08333,-0.833333 -5.04167,-1.041666 -2.91666,-0.208334 -6.58333,0.08333 z m 64.95829,-28.749988 q 4.54167,0 8.66667,1.125 4.12499,1.083333 7.62499,3.083332 3.54167,1.999999 6.41667,4.833331 2.875,2.833332 4.87499,6.249998 2.04167,3.416665 3.125,7.374996 1.125,3.958332 1.125,8.20833 0,4.208332 -1.125,8.124997 -1.08333,3.874998 -3.125,7.249997 -1.99999,3.374999 -4.87499,6.166664 -2.875,2.749999 -6.41667,4.708331 -3.5,1.958333 -7.62499,3.041666 -4.125,1.083333 -8.66667,1.083333 -4.29166,0 -8.29166,-1.083333 -3.95833,-1.083333 -7.41666,-3.041666 -3.41667,-1.958332 -6.25,-4.708331 -2.79167,-2.791665 -4.79167,-6.166664 -1.99999,-3.374999 -3.12499,-7.249997 -1.08334,-3.874998 -1.08334,-8.124997 0,-4.249998 1.08334,-8.20833 1.125,-3.958331 3.12499,-7.374996 2,-3.416666 4.79167,-6.249998 2.83333,-2.833332 6.25,-4.833331 3.45833,-1.999999 7.41666,-3.083332 4,-1.125 8.29166,-1.125 z m 0,49.333313 q 3.875,0 7.16667,-1.374999 3.29166,-1.375 5.66666,-3.666666 2.41667,-2.333332 3.75,-5.333331 1.375,-3.041665 1.375,-6.374997 0,-3.666665 -1.375,-6.708331 -1.33333,-3.083332 -3.75,-5.249997 -2.375,-2.208333 -5.66666,-3.416666 -3.29167,-1.249999 -7.16667,-1.249999 -3.54166,0 -6.66666,1.249999 -3.08333,1.208333 -5.41667,3.416666 -2.29166,2.166665 -3.62499,5.249997 -1.33334,3.041666 -1.33334,6.708331 0,3.333332 1.33334,6.374997 1.33333,2.999999 3.62499,5.333331 2.33334,2.291666 5.41667,3.666666 3.125,1.374999 6.66666,1.374999 z m 50.74998,-24.666656 0.83333,36.166651 H 661.08649 V 35.882177 h 12.125 l 26.62499,37.999984 -1.79167,-37.374984 13.74999,-0.541667 0.91667,58.041643 -11.24999,0.874999 z M 287.04498,167.04882 q -1.5,1.20833 -3.54166,2 -2,0.79167 -4.25,1.25 -2.25,0.41667 -4.58333,0.58333 -2.29167,0.16667 -4.375,0.16667 -4,0 -7.95833,-0.95833 -3.91666,-0.95834 -7.5,-2.75 -3.54166,-1.79167 -6.58333,-4.29167 -3.04166,-2.54166 -5.29166,-5.625 -2.20833,-3.12499 -3.5,-6.74999 -1.25,-3.625 -1.25,-7.625 -0.20833,-4.41666 0.66667,-8.54166 0.875,-4.16667 2.75,-7.79167 1.875,-3.66666 4.70833,-6.66666 2.875,-3.04167 6.66666,-5.20833 3.83333,-2.20833 8.54166,-3.41667 4.70834,-1.20833 10.29167,-1.20833 3.625,0 6.83333,0.54167 3.25,0.5 5.70833,1.20833 2.5,0.66667 4.04166,1.33333 1.54167,0.625 1.83334,0.91667 v 15.20833 q -0.875,-0.58334 -2.625,-1.25 -1.70834,-0.70834 -3.95833,-1.20834 -2.25,-0.54166 -4.91667,-0.75 -2.625,-0.25 -5.29166,0.0417 -1.625,0 -3.79167,0.41667 -2.125,0.41666 -4.375,1.375 -2.25,0.91666 -4.375,2.41666 -2.08333,1.45833 -3.62499,3.625 -1.5,2.125 -2.16667,4.95833 -0.66667,2.83333 -0.0833,6.41667 0.58333,2.99999 2.58333,5.29166 2,2.25 4.79166,3.79167 2.83334,1.54166 6.20834,2.33333 3.37499,0.75 6.70833,0.83333 3.37499,0.0417 6.41666,-0.625 3.08333,-0.66667 5.29166,-2.08333 z m 49.37499,-26.45832 q -1.33334,1.375 -3.08334,2.41666 -1.70833,1 -3.58333,1.75 -1.875,0.70834 -3.83333,1.16667 -1.91667,0.41667 -3.66667,0.625 l 15.79166,15.95833 -8.12499,7.29166 -19.12499,-21.70833 0.45833,21.70833 -15.45833,0.83333 -1.625,-59.29164 16.29166,-0.875 q 3,0 7.25,0.20833 4.29166,0.20834 9.83333,1.41667 2.45833,0.54167 4.75,2 2.29166,1.45833 4.08333,3.54166 1.83333,2.04167 3,4.625 1.16666,2.54167 1.375,5.29167 0.125,1.83333 0.0417,3.45833 -0.0417,1.625 -0.5,3.20833 -0.41666,1.58333 -1.33333,3.16667 -0.91667,1.54166 -2.54166,3.20833 z m -9.75,-9.04166 q -0.29167,-2.41667 -1.5,-3.95834 -1.16667,-1.58333 -3.25,-2.41666 -2.04166,-0.875 -4.91666,-1.04167 -2.875,-0.20833 -6.54167,0.0833 v 15.54167 q 0.58334,0 2.08334,0.12499 1.49999,0.125 3.37499,0.125 1.875,-0.0417 3.875,-0.37499 2,-0.33334 3.58333,-1.25 1.625,-0.91667 2.54167,-2.54167 0.95833,-1.625 0.75,-4.29166 z m 34.12499,-6.33334 0.25,19.66666 h 18.24999 v 8 h -17.91666 l 0.16667,6.5 27.04165,-0.875 0.33334,11.37499 -42.74999,0.75 -0.75,-59.66664 h 48.37498 v 14.24999 z m 76.3333,28.41666 H 418.5866 l -5.70833,16.99999 -14.49999,-4 21.83332,-55.74997 12.04166,0.79166 22.62499,54.08331 -11.29166,4.125 z m -3.25,-7.25 -7.24999,-16.95832 -5.625,16.95832 z m 58.29165,-22.66665 0.75,46.33331 -15.37499,0.58333 -0.83334,-46.41665 -17.33332,0.83334 -0.41667,-12.625 52.49998,-1.625 0.41666,12.125 z m 55.12497,-13.91667 q 4.54166,0 8.66666,1.125 4.125,1.08334 7.625,3.08334 3.54166,1.99999 6.41666,4.83333 2.875,2.83333 4.875,6.24999 2.04167,3.41667 3.125,7.375 1.125,3.95833 1.125,8.20833 0,4.20833 -1.125,8.125 -1.08333,3.875 -3.125,7.24999 -2,3.375 -4.875,6.16667 -2.875,2.75 -6.41666,4.70833 -3.5,1.95833 -7.625,3.04167 -4.125,1.08333 -8.66666,1.08333 -4.29167,0 -8.29166,-1.08333 -3.95834,-1.08334 -7.41667,-3.04167 -3.41666,-1.95833 -6.24999,-4.70833 -2.79167,-2.79167 -4.79167,-6.16667 -2,-3.37499 -3.125,-7.24999 -1.08333,-3.875 -1.08333,-8.125 0,-4.25 1.08333,-8.20833 1.125,-3.95833 3.125,-7.375 2,-3.41666 4.79167,-6.24999 2.83333,-2.83334 6.24999,-4.83333 3.45833,-2 7.41667,-3.08334 3.99999,-1.125 8.29166,-1.125 z m 0,49.33332 q 3.875,0 7.16666,-1.375 3.29167,-1.375 5.66667,-3.66667 2.41666,-2.33333 3.75,-5.33333 1.375,-3.04166 1.375,-6.375 0,-3.66666 -1.375,-6.70833 -1.33334,-3.08333 -3.75,-5.24999 -2.375,-2.20834 -5.66667,-3.41667 -3.29166,-1.25 -7.16666,-1.25 -3.54167,0 -6.66666,1.25 -3.08334,1.20833 -5.41667,3.41667 -2.29166,2.16666 -3.625,5.24999 -1.33333,3.04167 -1.33333,6.70833 0,3.33334 1.33333,6.375 1.33334,3 3.625,5.33333 2.33333,2.29167 5.41667,3.66667 3.12499,1.375 6.66666,1.375 z m 77.79163,-18.54166 q -1.33333,1.375 -3.08333,2.41666 -1.70833,1 -3.58333,1.75 -1.875,0.70834 -3.83333,1.16667 -1.91667,0.41667 -3.66667,0.625 l 15.79166,15.95833 -8.125,7.29166 -19.12499,-21.70833 0.45833,21.70833 -15.45832,0.83333 -1.625,-59.29164 16.29166,-0.875 q 3,0 7.25,0.20833 4.29166,0.20834 9.83332,1.41667 2.45834,0.54167 4.75,2 2.29167,1.45833 4.08333,3.54166 1.83334,2.04167 3,4.625 1.16667,2.54167 1.375,5.29167 0.125,1.83333 0.0417,3.45833 -0.0417,1.625 -0.5,3.20833 -0.41667,1.58333 -1.33333,3.16667 -0.91667,1.54166 -2.54167,3.20833 z m -9.74999,-9.04166 q -0.29167,-2.41667 -1.5,-3.95834 -1.16667,-1.58333 -3.25,-2.41666 -2.04167,-0.875 -4.91667,-1.04167 -2.875,-0.20833 -6.54166,0.0833 v 15.54167 q 0.58333,0 2.08333,0.12499 1.5,0.125 3.375,0.125 1.875,-0.0417 3.875,-0.37499 2,-0.33334 3.58333,-1.25 1.625,-0.91667 2.54167,-2.54167 0.95833,-1.625 0.75,-4.29166 z"
       id="text46"
       style="font-size:85.3333px;line-height:75px;font-family:'TF2 Build';-inkscape-font-specification:'TF2 Build, Normal';text-align:center;text-anchor:middle;white-space:pre;fill:#f9f9f9;stroke-width:0.321"
       transform="matrix(0.26458333,0,0,0.26458333,3.7088176,20.117471)"
       aria-label="TF2 WEAPON CREATOR" />
  </g>
  <rect
     style="display:inline;fill:#72675a;fill-opacity:1;fill-rule:nonzero;stroke-width:0.106748;-inkscape-stroke:none"
     id="rect48"
     width="34.658081"
     height="7.8126307"
     x="196.63783"
     y="84.412888"
     ry="3.9063153" />
  <rect
     style="display:inline;fill:#72675a;fill-opacity:1;fill-rule:nonzero;stroke-width:0.106748;-inkscape-stroke:none"
     id="rect49"
     width="34.6581"
     height="7.8126307"
     x="161.04868"
     y="84.412888"
     ry="3.9063153" />
  <rect
     style="display:inline;fill:#72675a;fill-opacity:1;fill-rule:nonzero;stroke-width:0.106748;-inkscape-stroke:none"
     id="rect50"
     width="34.6581"
     height="7.8126307"
     x="125.45956"
     y="84.412888"
     ry="3.9063153" />
</svg>
